<mxfile modified="2020-04-15T06:05:22.997Z" host="app.diagrams.net" agent="5.0 (Macintosh; Intel Mac OS X 10_15_1) AppleWebKit/537.36 (KHTML, like Gecko) Chrome/80.0.3987.163 Safari/537.36" etag="cE8zkwG3DBA0sUN0PmCw" version="12.9.11" type="github">
  <diagram id="nuEcVIXrLbvVM1fUiZzF" name="Page-1">
    <mxGraphModel dx="2038" dy="1762" grid="1" gridSize="10" guides="1" tooltips="1" connect="1" arrows="1" fold="1" page="1" pageScale="1" pageWidth="850" pageHeight="1100" math="0" shadow="0">
      <root>
        <mxCell id="0" />
        <mxCell id="1" parent="0" />
        <mxCell id="5Z3BYzDQgMa1WQDFU6qO-2" value="Patient" style="swimlane;fontStyle=0;childLayout=stackLayout;horizontal=1;startSize=26;fillColor=#e0e0e0;horizontalStack=0;resizeParent=1;resizeParentMax=0;resizeLast=0;collapsible=1;marginBottom=0;swimlaneFillColor=#ffffff;align=center;fontSize=14;" parent="1" vertex="1">
          <mxGeometry x="80" y="80" width="160" height="208" as="geometry" />
        </mxCell>
        <mxCell id="5Z3BYzDQgMa1WQDFU6qO-6" value="id" style="shape=partialRectangle;top=0;left=0;right=0;bottom=0;align=left;verticalAlign=top;fillColor=none;spacingLeft=34;spacingRight=4;overflow=hidden;rotatable=0;points=[[0,0.5],[1,0.5]];portConstraint=eastwest;dropTarget=0;fontSize=12;" parent="5Z3BYzDQgMa1WQDFU6qO-2" vertex="1">
          <mxGeometry y="26" width="160" height="26" as="geometry" />
        </mxCell>
        <mxCell id="5Z3BYzDQgMa1WQDFU6qO-7" value="PK" style="shape=partialRectangle;top=0;left=0;bottom=0;fillColor=none;align=left;verticalAlign=top;spacingLeft=4;spacingRight=4;overflow=hidden;rotatable=0;points=[];portConstraint=eastwest;part=1;fontSize=12;" parent="5Z3BYzDQgMa1WQDFU6qO-6" vertex="1" connectable="0">
          <mxGeometry width="30" height="26" as="geometry" />
        </mxCell>
        <mxCell id="5Z3BYzDQgMa1WQDFU6qO-3" value="email" style="text;strokeColor=none;fillColor=none;spacingLeft=4;spacingRight=4;overflow=hidden;rotatable=0;points=[[0,0.5],[1,0.5]];portConstraint=eastwest;fontSize=12;" parent="5Z3BYzDQgMa1WQDFU6qO-2" vertex="1">
          <mxGeometry y="52" width="160" height="26" as="geometry" />
        </mxCell>
        <mxCell id="5Z3BYzDQgMa1WQDFU6qO-4" value="encrypted_password" style="text;strokeColor=none;fillColor=none;spacingLeft=4;spacingRight=4;overflow=hidden;rotatable=0;points=[[0,0.5],[1,0.5]];portConstraint=eastwest;fontSize=12;" parent="5Z3BYzDQgMa1WQDFU6qO-2" vertex="1">
          <mxGeometry y="78" width="160" height="26" as="geometry" />
        </mxCell>
        <mxCell id="5Z3BYzDQgMa1WQDFU6qO-5" value="reset_password_token" style="text;strokeColor=none;fillColor=none;spacingLeft=4;spacingRight=4;overflow=hidden;rotatable=0;points=[[0,0.5],[1,0.5]];portConstraint=eastwest;fontSize=12;" parent="5Z3BYzDQgMa1WQDFU6qO-2" vertex="1">
          <mxGeometry y="104" width="160" height="26" as="geometry" />
        </mxCell>
        <mxCell id="5Z3BYzDQgMa1WQDFU6qO-8" value="reset_password_sent_at" style="text;strokeColor=none;fillColor=none;spacingLeft=4;spacingRight=4;overflow=hidden;rotatable=0;points=[[0,0.5],[1,0.5]];portConstraint=eastwest;fontSize=12;" parent="5Z3BYzDQgMa1WQDFU6qO-2" vertex="1">
          <mxGeometry y="130" width="160" height="26" as="geometry" />
        </mxCell>
        <mxCell id="5Z3BYzDQgMa1WQDFU6qO-82" value="remember_created_at" style="text;strokeColor=none;fillColor=none;spacingLeft=4;spacingRight=4;overflow=hidden;rotatable=0;points=[[0,0.5],[1,0.5]];portConstraint=eastwest;fontSize=12;" parent="5Z3BYzDQgMa1WQDFU6qO-2" vertex="1">
          <mxGeometry y="156" width="160" height="26" as="geometry" />
        </mxCell>
        <mxCell id="5Z3BYzDQgMa1WQDFU6qO-9" value="cellphone" style="text;strokeColor=none;fillColor=none;spacingLeft=4;spacingRight=4;overflow=hidden;rotatable=0;points=[[0,0.5],[1,0.5]];portConstraint=eastwest;fontSize=12;" parent="5Z3BYzDQgMa1WQDFU6qO-2" vertex="1">
          <mxGeometry y="182" width="160" height="26" as="geometry" />
        </mxCell>
        <mxCell id="5Z3BYzDQgMa1WQDFU6qO-13" value="Allergy" style="swimlane;fontStyle=0;childLayout=stackLayout;horizontal=1;startSize=26;fillColor=#e0e0e0;horizontalStack=0;resizeParent=1;resizeParentMax=0;resizeLast=0;collapsible=1;marginBottom=0;swimlaneFillColor=#ffffff;align=center;fontSize=14;" parent="1" vertex="1">
          <mxGeometry x="-440" y="188" width="160" height="130" as="geometry" />
        </mxCell>
        <mxCell id="5Z3BYzDQgMa1WQDFU6qO-14" value="id" style="shape=partialRectangle;top=0;left=0;right=0;bottom=0;align=left;verticalAlign=top;fillColor=none;spacingLeft=34;spacingRight=4;overflow=hidden;rotatable=0;points=[[0,0.5],[1,0.5]];portConstraint=eastwest;dropTarget=0;fontSize=12;" parent="5Z3BYzDQgMa1WQDFU6qO-13" vertex="1">
          <mxGeometry y="26" width="160" height="26" as="geometry" />
        </mxCell>
        <mxCell id="5Z3BYzDQgMa1WQDFU6qO-15" value="PK" style="shape=partialRectangle;top=0;left=0;bottom=0;fillColor=none;align=left;verticalAlign=top;spacingLeft=4;spacingRight=4;overflow=hidden;rotatable=0;points=[];portConstraint=eastwest;part=1;fontSize=12;" parent="5Z3BYzDQgMa1WQDFU6qO-14" vertex="1" connectable="0">
          <mxGeometry width="30" height="26" as="geometry" />
        </mxCell>
        <mxCell id="5Z3BYzDQgMa1WQDFU6qO-16" value="time" style="text;strokeColor=none;fillColor=none;spacingLeft=4;spacingRight=4;overflow=hidden;rotatable=0;points=[[0,0.5],[1,0.5]];portConstraint=eastwest;fontSize=12;" parent="5Z3BYzDQgMa1WQDFU6qO-13" vertex="1">
          <mxGeometry y="52" width="160" height="26" as="geometry" />
        </mxCell>
        <mxCell id="5Z3BYzDQgMa1WQDFU6qO-22" value="created_at" style="text;strokeColor=none;fillColor=none;spacingLeft=4;spacingRight=4;overflow=hidden;rotatable=0;points=[[0,0.5],[1,0.5]];portConstraint=eastwest;fontSize=12;" parent="5Z3BYzDQgMa1WQDFU6qO-13" vertex="1">
          <mxGeometry y="78" width="160" height="26" as="geometry" />
        </mxCell>
        <mxCell id="5Z3BYzDQgMa1WQDFU6qO-55" value="patient_id" style="text;strokeColor=none;fillColor=none;spacingLeft=4;spacingRight=4;overflow=hidden;rotatable=0;points=[[0,0.5],[1,0.5]];portConstraint=eastwest;fontSize=12;" parent="5Z3BYzDQgMa1WQDFU6qO-13" vertex="1">
          <mxGeometry y="104" width="160" height="26" as="geometry" />
        </mxCell>
        <mxCell id="5Z3BYzDQgMa1WQDFU6qO-23" value="Doctor" style="swimlane;fontStyle=0;childLayout=stackLayout;horizontal=1;startSize=26;fillColor=#e0e0e0;horizontalStack=0;resizeParent=1;resizeParentMax=0;resizeLast=0;collapsible=1;marginBottom=0;swimlaneFillColor=#ffffff;align=center;fontSize=14;" parent="1" vertex="1">
          <mxGeometry x="80" y="364" width="160" height="208" as="geometry" />
        </mxCell>
        <mxCell id="5Z3BYzDQgMa1WQDFU6qO-24" value="id" style="shape=partialRectangle;top=0;left=0;right=0;bottom=0;align=left;verticalAlign=top;fillColor=none;spacingLeft=34;spacingRight=4;overflow=hidden;rotatable=0;points=[[0,0.5],[1,0.5]];portConstraint=eastwest;dropTarget=0;fontSize=12;" parent="5Z3BYzDQgMa1WQDFU6qO-23" vertex="1">
          <mxGeometry y="26" width="160" height="26" as="geometry" />
        </mxCell>
        <mxCell id="5Z3BYzDQgMa1WQDFU6qO-25" value="PK" style="shape=partialRectangle;top=0;left=0;bottom=0;fillColor=none;align=left;verticalAlign=top;spacingLeft=4;spacingRight=4;overflow=hidden;rotatable=0;points=[];portConstraint=eastwest;part=1;fontSize=12;" parent="5Z3BYzDQgMa1WQDFU6qO-24" vertex="1" connectable="0">
          <mxGeometry width="30" height="26" as="geometry" />
        </mxCell>
        <mxCell id="5Z3BYzDQgMa1WQDFU6qO-26" value="email" style="text;strokeColor=none;fillColor=none;spacingLeft=4;spacingRight=4;overflow=hidden;rotatable=0;points=[[0,0.5],[1,0.5]];portConstraint=eastwest;fontSize=12;" parent="5Z3BYzDQgMa1WQDFU6qO-23" vertex="1">
          <mxGeometry y="52" width="160" height="26" as="geometry" />
        </mxCell>
        <mxCell id="5Z3BYzDQgMa1WQDFU6qO-27" value="encrypted_password" style="text;strokeColor=none;fillColor=none;spacingLeft=4;spacingRight=4;overflow=hidden;rotatable=0;points=[[0,0.5],[1,0.5]];portConstraint=eastwest;fontSize=12;" parent="5Z3BYzDQgMa1WQDFU6qO-23" vertex="1">
          <mxGeometry y="78" width="160" height="26" as="geometry" />
        </mxCell>
        <mxCell id="5Z3BYzDQgMa1WQDFU6qO-28" value="reset_password_token" style="text;strokeColor=none;fillColor=none;spacingLeft=4;spacingRight=4;overflow=hidden;rotatable=0;points=[[0,0.5],[1,0.5]];portConstraint=eastwest;fontSize=12;" parent="5Z3BYzDQgMa1WQDFU6qO-23" vertex="1">
          <mxGeometry y="104" width="160" height="26" as="geometry" />
        </mxCell>
        <mxCell id="5Z3BYzDQgMa1WQDFU6qO-29" value="reset_password_sent_at" style="text;strokeColor=none;fillColor=none;spacingLeft=4;spacingRight=4;overflow=hidden;rotatable=0;points=[[0,0.5],[1,0.5]];portConstraint=eastwest;fontSize=12;" parent="5Z3BYzDQgMa1WQDFU6qO-23" vertex="1">
          <mxGeometry y="130" width="160" height="26" as="geometry" />
        </mxCell>
        <mxCell id="5Z3BYzDQgMa1WQDFU6qO-83" value="remember_created_at" style="text;strokeColor=none;fillColor=none;spacingLeft=4;spacingRight=4;overflow=hidden;rotatable=0;points=[[0,0.5],[1,0.5]];portConstraint=eastwest;fontSize=12;" parent="5Z3BYzDQgMa1WQDFU6qO-23" vertex="1">
          <mxGeometry y="156" width="160" height="26" as="geometry" />
        </mxCell>
        <mxCell id="5Z3BYzDQgMa1WQDFU6qO-30" value="employee_id" style="text;strokeColor=none;fillColor=none;spacingLeft=4;spacingRight=4;overflow=hidden;rotatable=0;points=[[0,0.5],[1,0.5]];portConstraint=eastwest;fontSize=12;" parent="5Z3BYzDQgMa1WQDFU6qO-23" vertex="1">
          <mxGeometry y="182" width="160" height="26" as="geometry" />
        </mxCell>
        <mxCell id="5Z3BYzDQgMa1WQDFU6qO-33" value="DiagnosisProgram" style="swimlane;fontStyle=0;childLayout=stackLayout;horizontal=1;startSize=26;fillColor=#e0e0e0;horizontalStack=0;resizeParent=1;resizeParentMax=0;resizeLast=0;collapsible=1;marginBottom=0;swimlaneFillColor=#ffffff;align=center;fontSize=14;" parent="1" vertex="1">
          <mxGeometry x="560" y="240" width="160" height="130" as="geometry" />
        </mxCell>
        <mxCell id="5Z3BYzDQgMa1WQDFU6qO-34" value="id" style="shape=partialRectangle;top=0;left=0;right=0;bottom=0;align=left;verticalAlign=top;fillColor=none;spacingLeft=34;spacingRight=4;overflow=hidden;rotatable=0;points=[[0,0.5],[1,0.5]];portConstraint=eastwest;dropTarget=0;fontSize=12;" parent="5Z3BYzDQgMa1WQDFU6qO-33" vertex="1">
          <mxGeometry y="26" width="160" height="26" as="geometry" />
        </mxCell>
        <mxCell id="5Z3BYzDQgMa1WQDFU6qO-35" value="PK" style="shape=partialRectangle;top=0;left=0;bottom=0;fillColor=none;align=left;verticalAlign=top;spacingLeft=4;spacingRight=4;overflow=hidden;rotatable=0;points=[];portConstraint=eastwest;part=1;fontSize=12;" parent="5Z3BYzDQgMa1WQDFU6qO-34" vertex="1" connectable="0">
          <mxGeometry width="30" height="26" as="geometry" />
        </mxCell>
        <mxCell id="5Z3BYzDQgMa1WQDFU6qO-36" value="desc&#xa;&#xa;" style="text;strokeColor=none;fillColor=none;spacingLeft=4;spacingRight=4;overflow=hidden;rotatable=0;points=[[0,0.5],[1,0.5]];portConstraint=eastwest;fontSize=12;" parent="5Z3BYzDQgMa1WQDFU6qO-33" vertex="1">
          <mxGeometry y="52" width="160" height="26" as="geometry" />
        </mxCell>
        <mxCell id="5Z3BYzDQgMa1WQDFU6qO-99" value="patient_id" style="text;strokeColor=none;fillColor=none;spacingLeft=4;spacingRight=4;overflow=hidden;rotatable=0;points=[[0,0.5],[1,0.5]];portConstraint=eastwest;fontSize=12;" parent="5Z3BYzDQgMa1WQDFU6qO-33" vertex="1">
          <mxGeometry y="78" width="160" height="26" as="geometry" />
        </mxCell>
        <mxCell id="5Z3BYzDQgMa1WQDFU6qO-101" value="diagnosis_id" style="text;strokeColor=none;fillColor=none;spacingLeft=4;spacingRight=4;overflow=hidden;rotatable=0;points=[[0,0.5],[1,0.5]];portConstraint=eastwest;fontSize=12;" parent="5Z3BYzDQgMa1WQDFU6qO-33" vertex="1">
          <mxGeometry y="104" width="160" height="26" as="geometry" />
        </mxCell>
        <mxCell id="5Z3BYzDQgMa1WQDFU6qO-43" value="Diagnosis (Const)" style="swimlane;fontStyle=0;childLayout=stackLayout;horizontal=1;startSize=26;fillColor=#e0e0e0;horizontalStack=0;resizeParent=1;resizeParentMax=0;resizeLast=0;collapsible=1;marginBottom=0;swimlaneFillColor=#ffffff;align=center;fontSize=14;" parent="1" vertex="1">
          <mxGeometry x="560" y="80" width="160" height="104" as="geometry" />
        </mxCell>
        <mxCell id="5Z3BYzDQgMa1WQDFU6qO-44" value="id" style="shape=partialRectangle;top=0;left=0;right=0;bottom=0;align=left;verticalAlign=top;fillColor=none;spacingLeft=34;spacingRight=4;overflow=hidden;rotatable=0;points=[[0,0.5],[1,0.5]];portConstraint=eastwest;dropTarget=0;fontSize=12;" parent="5Z3BYzDQgMa1WQDFU6qO-43" vertex="1">
          <mxGeometry y="26" width="160" height="26" as="geometry" />
        </mxCell>
        <mxCell id="5Z3BYzDQgMa1WQDFU6qO-45" value="PK" style="shape=partialRectangle;top=0;left=0;bottom=0;fillColor=none;align=left;verticalAlign=top;spacingLeft=4;spacingRight=4;overflow=hidden;rotatable=0;points=[];portConstraint=eastwest;part=1;fontSize=12;" parent="5Z3BYzDQgMa1WQDFU6qO-44" vertex="1" connectable="0">
          <mxGeometry width="30" height="26" as="geometry" />
        </mxCell>
        <mxCell id="5Z3BYzDQgMa1WQDFU6qO-46" value="code" style="text;strokeColor=none;fillColor=none;spacingLeft=4;spacingRight=4;overflow=hidden;rotatable=0;points=[[0,0.5],[1,0.5]];portConstraint=eastwest;fontSize=12;" parent="5Z3BYzDQgMa1WQDFU6qO-43" vertex="1">
          <mxGeometry y="52" width="160" height="26" as="geometry" />
        </mxCell>
        <mxCell id="5Z3BYzDQgMa1WQDFU6qO-47" value="subject" style="text;strokeColor=none;fillColor=none;spacingLeft=4;spacingRight=4;overflow=hidden;rotatable=0;points=[[0,0.5],[1,0.5]];portConstraint=eastwest;fontSize=12;" parent="5Z3BYzDQgMa1WQDFU6qO-43" vertex="1">
          <mxGeometry y="78" width="160" height="26" as="geometry" />
        </mxCell>
        <mxCell id="5Z3BYzDQgMa1WQDFU6qO-57" value="CarePath (Const)" style="swimlane;fontStyle=0;childLayout=stackLayout;horizontal=1;startSize=26;fillColor=#e0e0e0;horizontalStack=0;resizeParent=1;resizeParentMax=0;resizeLast=0;collapsible=1;marginBottom=0;swimlaneFillColor=#ffffff;align=center;fontSize=14;" parent="1" vertex="1">
          <mxGeometry x="560" y="442" width="160" height="130" as="geometry" />
        </mxCell>
        <mxCell id="5Z3BYzDQgMa1WQDFU6qO-58" value="id" style="shape=partialRectangle;top=0;left=0;right=0;bottom=0;align=left;verticalAlign=top;fillColor=none;spacingLeft=34;spacingRight=4;overflow=hidden;rotatable=0;points=[[0,0.5],[1,0.5]];portConstraint=eastwest;dropTarget=0;fontSize=12;" parent="5Z3BYzDQgMa1WQDFU6qO-57" vertex="1">
          <mxGeometry y="26" width="160" height="26" as="geometry" />
        </mxCell>
        <mxCell id="5Z3BYzDQgMa1WQDFU6qO-59" value="PK" style="shape=partialRectangle;top=0;left=0;bottom=0;fillColor=none;align=left;verticalAlign=top;spacingLeft=4;spacingRight=4;overflow=hidden;rotatable=0;points=[];portConstraint=eastwest;part=1;fontSize=12;" parent="5Z3BYzDQgMa1WQDFU6qO-58" vertex="1" connectable="0">
          <mxGeometry width="30" height="26" as="geometry" />
        </mxCell>
        <mxCell id="5Z3BYzDQgMa1WQDFU6qO-60" value="code" style="text;strokeColor=none;fillColor=none;spacingLeft=4;spacingRight=4;overflow=hidden;rotatable=0;points=[[0,0.5],[1,0.5]];portConstraint=eastwest;fontSize=12;" parent="5Z3BYzDQgMa1WQDFU6qO-57" vertex="1">
          <mxGeometry y="52" width="160" height="26" as="geometry" />
        </mxCell>
        <mxCell id="5Z3BYzDQgMa1WQDFU6qO-61" value="name" style="text;strokeColor=none;fillColor=none;spacingLeft=4;spacingRight=4;overflow=hidden;rotatable=0;points=[[0,0.5],[1,0.5]];portConstraint=eastwest;fontSize=12;" parent="5Z3BYzDQgMa1WQDFU6qO-57" vertex="1">
          <mxGeometry y="78" width="160" height="26" as="geometry" />
        </mxCell>
        <mxCell id="5Z3BYzDQgMa1WQDFU6qO-103" value="diagnosis_id" style="text;strokeColor=none;fillColor=none;spacingLeft=4;spacingRight=4;overflow=hidden;rotatable=0;points=[[0,0.5],[1,0.5]];portConstraint=eastwest;fontSize=12;" parent="5Z3BYzDQgMa1WQDFU6qO-57" vertex="1">
          <mxGeometry y="104" width="160" height="26" as="geometry" />
        </mxCell>
        <mxCell id="5Z3BYzDQgMa1WQDFU6qO-65" value="CarePlan" style="swimlane;fontStyle=0;childLayout=stackLayout;horizontal=1;startSize=26;fillColor=#e0e0e0;horizontalStack=0;resizeParent=1;resizeParentMax=0;resizeLast=0;collapsible=1;marginBottom=0;swimlaneFillColor=#ffffff;align=center;fontSize=14;" parent="1" vertex="1">
          <mxGeometry x="320" y="318" width="160" height="156" as="geometry" />
        </mxCell>
        <mxCell id="5Z3BYzDQgMa1WQDFU6qO-66" value="id" style="shape=partialRectangle;top=0;left=0;right=0;bottom=0;align=left;verticalAlign=top;fillColor=none;spacingLeft=34;spacingRight=4;overflow=hidden;rotatable=0;points=[[0,0.5],[1,0.5]];portConstraint=eastwest;dropTarget=0;fontSize=12;" parent="5Z3BYzDQgMa1WQDFU6qO-65" vertex="1">
          <mxGeometry y="26" width="160" height="26" as="geometry" />
        </mxCell>
        <mxCell id="5Z3BYzDQgMa1WQDFU6qO-67" value="PK" style="shape=partialRectangle;top=0;left=0;bottom=0;fillColor=none;align=left;verticalAlign=top;spacingLeft=4;spacingRight=4;overflow=hidden;rotatable=0;points=[];portConstraint=eastwest;part=1;fontSize=12;" parent="5Z3BYzDQgMa1WQDFU6qO-66" vertex="1" connectable="0">
          <mxGeometry width="30" height="26" as="geometry" />
        </mxCell>
        <mxCell id="5Z3BYzDQgMa1WQDFU6qO-118" value="code" style="text;strokeColor=none;fillColor=none;spacingLeft=4;spacingRight=4;overflow=hidden;rotatable=0;points=[[0,0.5],[1,0.5]];portConstraint=eastwest;fontSize=12;" parent="5Z3BYzDQgMa1WQDFU6qO-65" vertex="1">
          <mxGeometry y="52" width="160" height="26" as="geometry" />
        </mxCell>
        <mxCell id="5Z3BYzDQgMa1WQDFU6qO-117" value="is_active" style="text;strokeColor=none;fillColor=none;spacingLeft=4;spacingRight=4;overflow=hidden;rotatable=0;points=[[0,0.5],[1,0.5]];portConstraint=eastwest;fontSize=12;" parent="5Z3BYzDQgMa1WQDFU6qO-65" vertex="1">
          <mxGeometry y="78" width="160" height="26" as="geometry" />
        </mxCell>
        <mxCell id="5Z3BYzDQgMa1WQDFU6qO-121" value="patient_id" style="text;strokeColor=none;fillColor=none;spacingLeft=4;spacingRight=4;overflow=hidden;rotatable=0;points=[[0,0.5],[1,0.5]];portConstraint=eastwest;fontSize=12;" parent="5Z3BYzDQgMa1WQDFU6qO-65" vertex="1">
          <mxGeometry y="104" width="160" height="26" as="geometry" />
        </mxCell>
        <mxCell id="5Z3BYzDQgMa1WQDFU6qO-124" value="diagnosis_program_id" style="text;strokeColor=none;fillColor=none;spacingLeft=4;spacingRight=4;overflow=hidden;rotatable=0;points=[[0,0.5],[1,0.5]];portConstraint=eastwest;fontSize=12;" parent="5Z3BYzDQgMa1WQDFU6qO-65" vertex="1">
          <mxGeometry y="130" width="160" height="26" as="geometry" />
        </mxCell>
        <mxCell id="5Z3BYzDQgMa1WQDFU6qO-73" value="CarePathGoal (Const)" style="swimlane;fontStyle=0;childLayout=stackLayout;horizontal=1;startSize=26;fillColor=#e0e0e0;horizontalStack=0;resizeParent=1;resizeParentMax=0;resizeLast=0;collapsible=1;marginBottom=0;swimlaneFillColor=#ffffff;align=center;fontSize=14;" parent="1" vertex="1">
          <mxGeometry x="320" y="653" width="160" height="104" as="geometry" />
        </mxCell>
        <mxCell id="5Z3BYzDQgMa1WQDFU6qO-74" value="id" style="shape=partialRectangle;top=0;left=0;right=0;bottom=0;align=left;verticalAlign=top;fillColor=none;spacingLeft=34;spacingRight=4;overflow=hidden;rotatable=0;points=[[0,0.5],[1,0.5]];portConstraint=eastwest;dropTarget=0;fontSize=12;" parent="5Z3BYzDQgMa1WQDFU6qO-73" vertex="1">
          <mxGeometry y="26" width="160" height="26" as="geometry" />
        </mxCell>
        <mxCell id="5Z3BYzDQgMa1WQDFU6qO-75" value="PK" style="shape=partialRectangle;top=0;left=0;bottom=0;fillColor=none;align=left;verticalAlign=top;spacingLeft=4;spacingRight=4;overflow=hidden;rotatable=0;points=[];portConstraint=eastwest;part=1;fontSize=12;" parent="5Z3BYzDQgMa1WQDFU6qO-74" vertex="1" connectable="0">
          <mxGeometry width="30" height="26" as="geometry" />
        </mxCell>
        <mxCell id="5Z3BYzDQgMa1WQDFU6qO-77" value="name" style="text;strokeColor=none;fillColor=none;spacingLeft=4;spacingRight=4;overflow=hidden;rotatable=0;points=[[0,0.5],[1,0.5]];portConstraint=eastwest;fontSize=12;" parent="5Z3BYzDQgMa1WQDFU6qO-73" vertex="1">
          <mxGeometry y="52" width="160" height="26" as="geometry" />
        </mxCell>
        <mxCell id="5Z3BYzDQgMa1WQDFU6qO-78" value="value" style="text;strokeColor=none;fillColor=none;spacingLeft=4;spacingRight=4;overflow=hidden;rotatable=0;points=[[0,0.5],[1,0.5]];portConstraint=eastwest;fontSize=12;" parent="5Z3BYzDQgMa1WQDFU6qO-73" vertex="1">
          <mxGeometry y="78" width="160" height="26" as="geometry" />
        </mxCell>
        <mxCell id="5Z3BYzDQgMa1WQDFU6qO-84" value="CPlan_Pivot_CGoal" style="swimlane;fontStyle=0;childLayout=stackLayout;horizontal=1;startSize=26;fillColor=#e0e0e0;horizontalStack=0;resizeParent=1;resizeParentMax=0;resizeLast=0;collapsible=1;marginBottom=0;swimlaneFillColor=#ffffff;align=center;fontSize=14;" parent="1" vertex="1">
          <mxGeometry x="320" y="520" width="160" height="104" as="geometry" />
        </mxCell>
        <mxCell id="5Z3BYzDQgMa1WQDFU6qO-85" value="id" style="shape=partialRectangle;top=0;left=0;right=0;bottom=0;align=left;verticalAlign=top;fillColor=none;spacingLeft=34;spacingRight=4;overflow=hidden;rotatable=0;points=[[0,0.5],[1,0.5]];portConstraint=eastwest;dropTarget=0;fontSize=12;" parent="5Z3BYzDQgMa1WQDFU6qO-84" vertex="1">
          <mxGeometry y="26" width="160" height="26" as="geometry" />
        </mxCell>
        <mxCell id="5Z3BYzDQgMa1WQDFU6qO-86" value="PK" style="shape=partialRectangle;top=0;left=0;bottom=0;fillColor=none;align=left;verticalAlign=top;spacingLeft=4;spacingRight=4;overflow=hidden;rotatable=0;points=[];portConstraint=eastwest;part=1;fontSize=12;" parent="5Z3BYzDQgMa1WQDFU6qO-85" vertex="1" connectable="0">
          <mxGeometry width="30" height="26" as="geometry" />
        </mxCell>
        <mxCell id="5Z3BYzDQgMa1WQDFU6qO-87" value="care_plan_id" style="text;strokeColor=none;fillColor=none;spacingLeft=4;spacingRight=4;overflow=hidden;rotatable=0;points=[[0,0.5],[1,0.5]];portConstraint=eastwest;fontSize=12;" parent="5Z3BYzDQgMa1WQDFU6qO-84" vertex="1">
          <mxGeometry y="52" width="160" height="26" as="geometry" />
        </mxCell>
        <mxCell id="5Z3BYzDQgMa1WQDFU6qO-88" value="care_plan_goal_id" style="text;strokeColor=none;fillColor=none;spacingLeft=4;spacingRight=4;overflow=hidden;rotatable=0;points=[[0,0.5],[1,0.5]];portConstraint=eastwest;fontSize=12;" parent="5Z3BYzDQgMa1WQDFU6qO-84" vertex="1">
          <mxGeometry y="78" width="160" height="26" as="geometry" />
        </mxCell>
        <mxCell id="5Z3BYzDQgMa1WQDFU6qO-100" value="" style="edgeStyle=orthogonalEdgeStyle;fontSize=12;html=1;endArrow=ERoneToMany;" parent="1" source="5Z3BYzDQgMa1WQDFU6qO-6" target="5Z3BYzDQgMa1WQDFU6qO-99" edge="1">
          <mxGeometry width="100" height="100" relative="1" as="geometry">
            <mxPoint x="290" y="155" as="sourcePoint" />
            <mxPoint x="210" y="337" as="targetPoint" />
            <Array as="points">
              <mxPoint x="520" y="119" />
              <mxPoint x="520" y="331" />
            </Array>
          </mxGeometry>
        </mxCell>
        <mxCell id="5Z3BYzDQgMa1WQDFU6qO-102" value="" style="edgeStyle=orthogonalEdgeStyle;fontSize=12;html=1;endArrow=ERoneToMany;" parent="1" source="5Z3BYzDQgMa1WQDFU6qO-44" target="5Z3BYzDQgMa1WQDFU6qO-101" edge="1">
          <mxGeometry width="100" height="100" relative="1" as="geometry">
            <mxPoint x="490" y="129" as="sourcePoint" />
            <mxPoint x="570" y="444" as="targetPoint" />
            <Array as="points">
              <mxPoint x="760" y="130" />
              <mxPoint x="760" y="357" />
            </Array>
          </mxGeometry>
        </mxCell>
        <mxCell id="5Z3BYzDQgMa1WQDFU6qO-104" value="" style="edgeStyle=orthogonalEdgeStyle;fontSize=12;html=1;endArrow=ERoneToMany;" parent="1" source="5Z3BYzDQgMa1WQDFU6qO-44" target="5Z3BYzDQgMa1WQDFU6qO-103" edge="1">
          <mxGeometry width="100" height="100" relative="1" as="geometry">
            <mxPoint x="740" y="170" as="sourcePoint" />
            <mxPoint x="730" y="470" as="targetPoint" />
            <Array as="points">
              <mxPoint x="800" y="119" />
              <mxPoint x="800" y="559" />
            </Array>
          </mxGeometry>
        </mxCell>
        <mxCell id="5Z3BYzDQgMa1WQDFU6qO-105" value="" style="edgeStyle=orthogonalEdgeStyle;fontSize=12;html=1;endArrow=ERoneToMany;" parent="1" source="5Z3BYzDQgMa1WQDFU6qO-66" target="5Z3BYzDQgMa1WQDFU6qO-85" edge="1">
          <mxGeometry width="100" height="100" relative="1" as="geometry">
            <mxPoint x="460" y="511" as="sourcePoint" />
            <mxPoint x="460" y="852" as="targetPoint" />
            <Array as="points">
              <mxPoint x="280" y="357" />
              <mxPoint x="280" y="559" />
            </Array>
          </mxGeometry>
        </mxCell>
        <mxCell id="5Z3BYzDQgMa1WQDFU6qO-106" value="" style="edgeStyle=orthogonalEdgeStyle;fontSize=12;html=1;endArrow=ERoneToMany;" parent="1" source="OGw_8-Kg8HZaLpu6GbRe-2" target="5Z3BYzDQgMa1WQDFU6qO-88" edge="1">
          <mxGeometry width="100" height="100" relative="1" as="geometry">
            <mxPoint x="490" y="489" as="sourcePoint" />
            <mxPoint x="540" y="770" as="targetPoint" />
            <Array as="points">
              <mxPoint x="280" y="666" />
              <mxPoint x="280" y="611" />
            </Array>
          </mxGeometry>
        </mxCell>
        <mxCell id="5Z3BYzDQgMa1WQDFU6qO-107" value="CPath_Pivot_CGoal (Const)" style="swimlane;fontStyle=0;childLayout=stackLayout;horizontal=1;startSize=26;fillColor=#e0e0e0;horizontalStack=0;resizeParent=1;resizeParentMax=0;resizeLast=0;collapsible=1;marginBottom=0;swimlaneFillColor=#ffffff;align=center;fontSize=14;" parent="1" vertex="1">
          <mxGeometry x="560" y="640" width="180" height="104" as="geometry" />
        </mxCell>
        <mxCell id="5Z3BYzDQgMa1WQDFU6qO-108" value="id" style="shape=partialRectangle;top=0;left=0;right=0;bottom=0;align=left;verticalAlign=top;fillColor=none;spacingLeft=34;spacingRight=4;overflow=hidden;rotatable=0;points=[[0,0.5],[1,0.5]];portConstraint=eastwest;dropTarget=0;fontSize=12;" parent="5Z3BYzDQgMa1WQDFU6qO-107" vertex="1">
          <mxGeometry y="26" width="180" height="26" as="geometry" />
        </mxCell>
        <mxCell id="5Z3BYzDQgMa1WQDFU6qO-109" value="PK" style="shape=partialRectangle;top=0;left=0;bottom=0;fillColor=none;align=left;verticalAlign=top;spacingLeft=4;spacingRight=4;overflow=hidden;rotatable=0;points=[];portConstraint=eastwest;part=1;fontSize=12;" parent="5Z3BYzDQgMa1WQDFU6qO-108" vertex="1" connectable="0">
          <mxGeometry width="30" height="26" as="geometry" />
        </mxCell>
        <mxCell id="5Z3BYzDQgMa1WQDFU6qO-110" value="care_path_id" style="text;strokeColor=none;fillColor=none;spacingLeft=4;spacingRight=4;overflow=hidden;rotatable=0;points=[[0,0.5],[1,0.5]];portConstraint=eastwest;fontSize=12;" parent="5Z3BYzDQgMa1WQDFU6qO-107" vertex="1">
          <mxGeometry y="52" width="180" height="26" as="geometry" />
        </mxCell>
        <mxCell id="5Z3BYzDQgMa1WQDFU6qO-111" value="care_path_goal_id" style="text;strokeColor=none;fillColor=none;spacingLeft=4;spacingRight=4;overflow=hidden;rotatable=0;points=[[0,0.5],[1,0.5]];portConstraint=eastwest;fontSize=12;" parent="5Z3BYzDQgMa1WQDFU6qO-107" vertex="1">
          <mxGeometry y="78" width="180" height="26" as="geometry" />
        </mxCell>
        <mxCell id="5Z3BYzDQgMa1WQDFU6qO-115" value="" style="edgeStyle=orthogonalEdgeStyle;fontSize=12;html=1;endArrow=ERoneToMany;" parent="1" source="5Z3BYzDQgMa1WQDFU6qO-58" target="5Z3BYzDQgMa1WQDFU6qO-110" edge="1">
          <mxGeometry width="100" height="100" relative="1" as="geometry">
            <mxPoint x="480" y="851" as="sourcePoint" />
            <mxPoint x="480" y="783" as="targetPoint" />
            <Array as="points">
              <mxPoint x="540" y="481" />
              <mxPoint x="540" y="705" />
            </Array>
          </mxGeometry>
        </mxCell>
        <mxCell id="5Z3BYzDQgMa1WQDFU6qO-116" value="" style="edgeStyle=orthogonalEdgeStyle;fontSize=12;html=1;endArrow=ERoneToMany;" parent="1" source="5Z3BYzDQgMa1WQDFU6qO-74" target="5Z3BYzDQgMa1WQDFU6qO-111" edge="1">
          <mxGeometry width="100" height="100" relative="1" as="geometry">
            <mxPoint x="530" y="580" as="sourcePoint" />
            <mxPoint x="530" y="778" as="targetPoint" />
            <Array as="points">
              <mxPoint x="520" y="699" />
              <mxPoint x="520" y="731" />
            </Array>
          </mxGeometry>
        </mxCell>
        <mxCell id="5Z3BYzDQgMa1WQDFU6qO-119" value="" style="edgeStyle=orthogonalEdgeStyle;fontSize=12;html=1;endArrow=ERoneToMany;" parent="1" source="5Z3BYzDQgMa1WQDFU6qO-6" target="5Z3BYzDQgMa1WQDFU6qO-121" edge="1">
          <mxGeometry width="100" height="100" relative="1" as="geometry">
            <mxPoint x="490" y="650" as="sourcePoint" />
            <mxPoint x="490" y="530" as="targetPoint" />
            <Array as="points">
              <mxPoint x="500" y="130" />
              <mxPoint x="500" y="435" />
            </Array>
          </mxGeometry>
        </mxCell>
        <mxCell id="5Z3BYzDQgMa1WQDFU6qO-122" value="" style="edgeStyle=orthogonalEdgeStyle;fontSize=12;html=1;endArrow=ERoneToMany;" parent="1" source="5Z3BYzDQgMa1WQDFU6qO-34" target="5Z3BYzDQgMa1WQDFU6qO-124" edge="1">
          <mxGeometry width="100" height="100" relative="1" as="geometry">
            <mxPoint x="910" y="210" as="sourcePoint" />
            <mxPoint x="910" y="489" as="targetPoint" />
            <Array as="points">
              <mxPoint x="540" y="279" />
              <mxPoint x="540" y="461" />
            </Array>
          </mxGeometry>
        </mxCell>
        <mxCell id="OGw_8-Kg8HZaLpu6GbRe-1" value="CarePlanGoal" style="swimlane;fontStyle=0;childLayout=stackLayout;horizontal=1;startSize=26;fillColor=#e0e0e0;horizontalStack=0;resizeParent=1;resizeParentMax=0;resizeLast=0;collapsible=1;marginBottom=0;swimlaneFillColor=#ffffff;align=center;fontSize=14;" parent="1" vertex="1">
          <mxGeometry x="80" y="627" width="160" height="130" as="geometry" />
        </mxCell>
        <mxCell id="OGw_8-Kg8HZaLpu6GbRe-2" value="id" style="shape=partialRectangle;top=0;left=0;right=0;bottom=0;align=left;verticalAlign=top;fillColor=none;spacingLeft=34;spacingRight=4;overflow=hidden;rotatable=0;points=[[0,0.5],[1,0.5]];portConstraint=eastwest;dropTarget=0;fontSize=12;" parent="OGw_8-Kg8HZaLpu6GbRe-1" vertex="1">
          <mxGeometry y="26" width="160" height="26" as="geometry" />
        </mxCell>
        <mxCell id="OGw_8-Kg8HZaLpu6GbRe-3" value="PK" style="shape=partialRectangle;top=0;left=0;bottom=0;fillColor=none;align=left;verticalAlign=top;spacingLeft=4;spacingRight=4;overflow=hidden;rotatable=0;points=[];portConstraint=eastwest;part=1;fontSize=12;" parent="OGw_8-Kg8HZaLpu6GbRe-2" vertex="1" connectable="0">
          <mxGeometry width="30" height="26" as="geometry" />
        </mxCell>
        <mxCell id="OGw_8-Kg8HZaLpu6GbRe-4" value="name" style="text;strokeColor=none;fillColor=none;spacingLeft=4;spacingRight=4;overflow=hidden;rotatable=0;points=[[0,0.5],[1,0.5]];portConstraint=eastwest;fontSize=12;" parent="OGw_8-Kg8HZaLpu6GbRe-1" vertex="1">
          <mxGeometry y="52" width="160" height="26" as="geometry" />
        </mxCell>
        <mxCell id="OGw_8-Kg8HZaLpu6GbRe-7" value="value" style="text;strokeColor=none;fillColor=none;spacingLeft=4;spacingRight=4;overflow=hidden;rotatable=0;points=[[0,0.5],[1,0.5]];portConstraint=eastwest;fontSize=12;" parent="OGw_8-Kg8HZaLpu6GbRe-1" vertex="1">
          <mxGeometry y="78" width="160" height="26" as="geometry" />
        </mxCell>
        <mxCell id="OGw_8-Kg8HZaLpu6GbRe-8" value="is_complete" style="text;strokeColor=none;fillColor=none;spacingLeft=4;spacingRight=4;overflow=hidden;rotatable=0;points=[[0,0.5],[1,0.5]];portConstraint=eastwest;fontSize=12;" parent="OGw_8-Kg8HZaLpu6GbRe-1" vertex="1">
          <mxGeometry y="104" width="160" height="26" as="geometry" />
        </mxCell>
        <mxCell id="dli8txynP1x-u01KQsel-1" value="CarePlanGoalRecord" style="swimlane;fontStyle=0;childLayout=stackLayout;horizontal=1;startSize=26;fillColor=#e0e0e0;horizontalStack=0;resizeParent=1;resizeParentMax=0;resizeLast=0;collapsible=1;marginBottom=0;swimlaneFillColor=#ffffff;align=center;fontSize=14;" parent="1" vertex="1">
          <mxGeometry x="80" y="800" width="160" height="104" as="geometry" />
        </mxCell>
        <mxCell id="dli8txynP1x-u01KQsel-2" value="id" style="shape=partialRectangle;top=0;left=0;right=0;bottom=0;align=left;verticalAlign=top;fillColor=none;spacingLeft=34;spacingRight=4;overflow=hidden;rotatable=0;points=[[0,0.5],[1,0.5]];portConstraint=eastwest;dropTarget=0;fontSize=12;" parent="dli8txynP1x-u01KQsel-1" vertex="1">
          <mxGeometry y="26" width="160" height="26" as="geometry" />
        </mxCell>
        <mxCell id="dli8txynP1x-u01KQsel-3" value="PK" style="shape=partialRectangle;top=0;left=0;bottom=0;fillColor=none;align=left;verticalAlign=top;spacingLeft=4;spacingRight=4;overflow=hidden;rotatable=0;points=[];portConstraint=eastwest;part=1;fontSize=12;" parent="dli8txynP1x-u01KQsel-2" vertex="1" connectable="0">
          <mxGeometry width="30" height="26" as="geometry" />
        </mxCell>
        <mxCell id="dli8txynP1x-u01KQsel-5" value="value" style="text;strokeColor=none;fillColor=none;spacingLeft=4;spacingRight=4;overflow=hidden;rotatable=0;points=[[0,0.5],[1,0.5]];portConstraint=eastwest;fontSize=12;" parent="dli8txynP1x-u01KQsel-1" vertex="1">
          <mxGeometry y="52" width="160" height="26" as="geometry" />
        </mxCell>
        <mxCell id="dli8txynP1x-u01KQsel-6" value="care_plan_goal_id" style="text;strokeColor=none;fillColor=none;spacingLeft=4;spacingRight=4;overflow=hidden;rotatable=0;points=[[0,0.5],[1,0.5]];portConstraint=eastwest;fontSize=12;" parent="dli8txynP1x-u01KQsel-1" vertex="1">
          <mxGeometry y="78" width="160" height="26" as="geometry" />
        </mxCell>
        <mxCell id="dli8txynP1x-u01KQsel-7" value="" style="edgeStyle=orthogonalEdgeStyle;fontSize=12;html=1;endArrow=ERoneToMany;" parent="1" source="OGw_8-Kg8HZaLpu6GbRe-2" target="dli8txynP1x-u01KQsel-6" edge="1">
          <mxGeometry width="100" height="100" relative="1" as="geometry">
            <mxPoint y="894" as="sourcePoint" />
            <mxPoint x="80" y="839" as="targetPoint" />
            <Array as="points">
              <mxPoint x="40" y="666" />
              <mxPoint x="40" y="891" />
            </Array>
          </mxGeometry>
        </mxCell>
        <mxCell id="A8-PW9h9XL7K4N3BqfKl-1" value="TimeToReach" style="swimlane;fontStyle=0;childLayout=stackLayout;horizontal=1;startSize=26;fillColor=#e0e0e0;horizontalStack=0;resizeParent=1;resizeParentMax=0;resizeLast=0;collapsible=1;marginBottom=0;swimlaneFillColor=#ffffff;align=center;fontSize=14;" parent="1" vertex="1">
          <mxGeometry x="-440" y="40" width="160" height="130" as="geometry" />
        </mxCell>
        <mxCell id="A8-PW9h9XL7K4N3BqfKl-2" value="id" style="shape=partialRectangle;top=0;left=0;right=0;bottom=0;align=left;verticalAlign=top;fillColor=none;spacingLeft=34;spacingRight=4;overflow=hidden;rotatable=0;points=[[0,0.5],[1,0.5]];portConstraint=eastwest;dropTarget=0;fontSize=12;" parent="A8-PW9h9XL7K4N3BqfKl-1" vertex="1">
          <mxGeometry y="26" width="160" height="26" as="geometry" />
        </mxCell>
        <mxCell id="A8-PW9h9XL7K4N3BqfKl-3" value="PK" style="shape=partialRectangle;top=0;left=0;bottom=0;fillColor=none;align=left;verticalAlign=top;spacingLeft=4;spacingRight=4;overflow=hidden;rotatable=0;points=[];portConstraint=eastwest;part=1;fontSize=12;" parent="A8-PW9h9XL7K4N3BqfKl-2" vertex="1" connectable="0">
          <mxGeometry width="30" height="26" as="geometry" />
        </mxCell>
        <mxCell id="A8-PW9h9XL7K4N3BqfKl-4" value="time" style="text;strokeColor=none;fillColor=none;spacingLeft=4;spacingRight=4;overflow=hidden;rotatable=0;points=[[0,0.5],[1,0.5]];portConstraint=eastwest;fontSize=12;" parent="A8-PW9h9XL7K4N3BqfKl-1" vertex="1">
          <mxGeometry y="52" width="160" height="26" as="geometry" />
        </mxCell>
        <mxCell id="A8-PW9h9XL7K4N3BqfKl-5" value="created_at" style="text;strokeColor=none;fillColor=none;spacingLeft=4;spacingRight=4;overflow=hidden;rotatable=0;points=[[0,0.5],[1,0.5]];portConstraint=eastwest;fontSize=12;" parent="A8-PW9h9XL7K4N3BqfKl-1" vertex="1">
          <mxGeometry y="78" width="160" height="26" as="geometry" />
        </mxCell>
        <mxCell id="A8-PW9h9XL7K4N3BqfKl-6" value="patient_id" style="text;strokeColor=none;fillColor=none;spacingLeft=4;spacingRight=4;overflow=hidden;rotatable=0;points=[[0,0.5],[1,0.5]];portConstraint=eastwest;fontSize=12;" parent="A8-PW9h9XL7K4N3BqfKl-1" vertex="1">
          <mxGeometry y="104" width="160" height="26" as="geometry" />
        </mxCell>
        <mxCell id="A8-PW9h9XL7K4N3BqfKl-7" value="" style="edgeStyle=orthogonalEdgeStyle;fontSize=12;html=1;endArrow=ERoneToMany;" parent="1" source="5Z3BYzDQgMa1WQDFU6qO-6" target="A8-PW9h9XL7K4N3BqfKl-6" edge="1">
          <mxGeometry width="100" height="100" relative="1" as="geometry">
            <mxPoint x="260" y="70" as="sourcePoint" />
            <mxPoint x="-30" y="367" as="targetPoint" />
            <Array as="points">
              <mxPoint x="40" y="120" />
              <mxPoint x="40" y="157" />
            </Array>
          </mxGeometry>
        </mxCell>
        <mxCell id="A8-PW9h9XL7K4N3BqfKl-8" value="Stressor" style="swimlane;fontStyle=0;childLayout=stackLayout;horizontal=1;startSize=26;fillColor=#e0e0e0;horizontalStack=0;resizeParent=1;resizeParentMax=0;resizeLast=0;collapsible=1;marginBottom=0;swimlaneFillColor=#ffffff;align=center;fontSize=14;" parent="1" vertex="1">
          <mxGeometry x="-440" y="340" width="160" height="130" as="geometry" />
        </mxCell>
        <mxCell id="A8-PW9h9XL7K4N3BqfKl-9" value="id" style="shape=partialRectangle;top=0;left=0;right=0;bottom=0;align=left;verticalAlign=top;fillColor=none;spacingLeft=34;spacingRight=4;overflow=hidden;rotatable=0;points=[[0,0.5],[1,0.5]];portConstraint=eastwest;dropTarget=0;fontSize=12;" parent="A8-PW9h9XL7K4N3BqfKl-8" vertex="1">
          <mxGeometry y="26" width="160" height="26" as="geometry" />
        </mxCell>
        <mxCell id="A8-PW9h9XL7K4N3BqfKl-10" value="PK" style="shape=partialRectangle;top=0;left=0;bottom=0;fillColor=none;align=left;verticalAlign=top;spacingLeft=4;spacingRight=4;overflow=hidden;rotatable=0;points=[];portConstraint=eastwest;part=1;fontSize=12;" parent="A8-PW9h9XL7K4N3BqfKl-9" vertex="1" connectable="0">
          <mxGeometry width="30" height="26" as="geometry" />
        </mxCell>
        <mxCell id="A8-PW9h9XL7K4N3BqfKl-11" value="time" style="text;strokeColor=none;fillColor=none;spacingLeft=4;spacingRight=4;overflow=hidden;rotatable=0;points=[[0,0.5],[1,0.5]];portConstraint=eastwest;fontSize=12;" parent="A8-PW9h9XL7K4N3BqfKl-8" vertex="1">
          <mxGeometry y="52" width="160" height="26" as="geometry" />
        </mxCell>
        <mxCell id="A8-PW9h9XL7K4N3BqfKl-12" value="created_at" style="text;strokeColor=none;fillColor=none;spacingLeft=4;spacingRight=4;overflow=hidden;rotatable=0;points=[[0,0.5],[1,0.5]];portConstraint=eastwest;fontSize=12;" parent="A8-PW9h9XL7K4N3BqfKl-8" vertex="1">
          <mxGeometry y="78" width="160" height="26" as="geometry" />
        </mxCell>
        <mxCell id="A8-PW9h9XL7K4N3BqfKl-13" value="patient_id" style="text;strokeColor=none;fillColor=none;spacingLeft=4;spacingRight=4;overflow=hidden;rotatable=0;points=[[0,0.5],[1,0.5]];portConstraint=eastwest;fontSize=12;" parent="A8-PW9h9XL7K4N3BqfKl-8" vertex="1">
          <mxGeometry y="104" width="160" height="26" as="geometry" />
        </mxCell>
        <mxCell id="A8-PW9h9XL7K4N3BqfKl-14" value="Transportation" style="swimlane;fontStyle=0;childLayout=stackLayout;horizontal=1;startSize=26;fillColor=#e0e0e0;horizontalStack=0;resizeParent=1;resizeParentMax=0;resizeLast=0;collapsible=1;marginBottom=0;swimlaneFillColor=#ffffff;align=center;fontSize=14;" parent="1" vertex="1">
          <mxGeometry x="-440" y="485" width="160" height="130" as="geometry" />
        </mxCell>
        <mxCell id="A8-PW9h9XL7K4N3BqfKl-15" value="id" style="shape=partialRectangle;top=0;left=0;right=0;bottom=0;align=left;verticalAlign=top;fillColor=none;spacingLeft=34;spacingRight=4;overflow=hidden;rotatable=0;points=[[0,0.5],[1,0.5]];portConstraint=eastwest;dropTarget=0;fontSize=12;" parent="A8-PW9h9XL7K4N3BqfKl-14" vertex="1">
          <mxGeometry y="26" width="160" height="26" as="geometry" />
        </mxCell>
        <mxCell id="A8-PW9h9XL7K4N3BqfKl-16" value="PK" style="shape=partialRectangle;top=0;left=0;bottom=0;fillColor=none;align=left;verticalAlign=top;spacingLeft=4;spacingRight=4;overflow=hidden;rotatable=0;points=[];portConstraint=eastwest;part=1;fontSize=12;" parent="A8-PW9h9XL7K4N3BqfKl-15" vertex="1" connectable="0">
          <mxGeometry width="30" height="26" as="geometry" />
        </mxCell>
        <mxCell id="A8-PW9h9XL7K4N3BqfKl-17" value="time" style="text;strokeColor=none;fillColor=none;spacingLeft=4;spacingRight=4;overflow=hidden;rotatable=0;points=[[0,0.5],[1,0.5]];portConstraint=eastwest;fontSize=12;" parent="A8-PW9h9XL7K4N3BqfKl-14" vertex="1">
          <mxGeometry y="52" width="160" height="26" as="geometry" />
        </mxCell>
        <mxCell id="A8-PW9h9XL7K4N3BqfKl-18" value="created_at" style="text;strokeColor=none;fillColor=none;spacingLeft=4;spacingRight=4;overflow=hidden;rotatable=0;points=[[0,0.5],[1,0.5]];portConstraint=eastwest;fontSize=12;" parent="A8-PW9h9XL7K4N3BqfKl-14" vertex="1">
          <mxGeometry y="78" width="160" height="26" as="geometry" />
        </mxCell>
        <mxCell id="A8-PW9h9XL7K4N3BqfKl-19" value="patient_id" style="text;strokeColor=none;fillColor=none;spacingLeft=4;spacingRight=4;overflow=hidden;rotatable=0;points=[[0,0.5],[1,0.5]];portConstraint=eastwest;fontSize=12;" parent="A8-PW9h9XL7K4N3BqfKl-14" vertex="1">
          <mxGeometry y="104" width="160" height="26" as="geometry" />
        </mxCell>
        <mxCell id="9GtoAriRrsv0_3dhZRJt-1" value="AllergyPatient" style="swimlane;fontStyle=0;childLayout=stackLayout;horizontal=1;startSize=26;fillColor=#e0e0e0;horizontalStack=0;resizeParent=1;resizeParentMax=0;resizeLast=0;collapsible=1;marginBottom=0;swimlaneFillColor=#ffffff;align=center;fontSize=14;" parent="1" vertex="1">
          <mxGeometry x="-200" y="188" width="160" height="130" as="geometry" />
        </mxCell>
        <mxCell id="9GtoAriRrsv0_3dhZRJt-2" value="id" style="shape=partialRectangle;top=0;left=0;right=0;bottom=0;align=left;verticalAlign=top;fillColor=none;spacingLeft=34;spacingRight=4;overflow=hidden;rotatable=0;points=[[0,0.5],[1,0.5]];portConstraint=eastwest;dropTarget=0;fontSize=12;" parent="9GtoAriRrsv0_3dhZRJt-1" vertex="1">
          <mxGeometry y="26" width="160" height="26" as="geometry" />
        </mxCell>
        <mxCell id="9GtoAriRrsv0_3dhZRJt-3" value="PK" style="shape=partialRectangle;top=0;left=0;bottom=0;fillColor=none;align=left;verticalAlign=top;spacingLeft=4;spacingRight=4;overflow=hidden;rotatable=0;points=[];portConstraint=eastwest;part=1;fontSize=12;" parent="9GtoAriRrsv0_3dhZRJt-2" vertex="1" connectable="0">
          <mxGeometry width="30" height="26" as="geometry" />
        </mxCell>
        <mxCell id="9GtoAriRrsv0_3dhZRJt-4" value="allergy_id&#xa;" style="text;strokeColor=none;fillColor=none;spacingLeft=4;spacingRight=4;overflow=hidden;rotatable=0;points=[[0,0.5],[1,0.5]];portConstraint=eastwest;fontSize=12;" parent="9GtoAriRrsv0_3dhZRJt-1" vertex="1">
          <mxGeometry y="52" width="160" height="26" as="geometry" />
        </mxCell>
        <mxCell id="9GtoAriRrsv0_3dhZRJt-6" value="patient_id" style="text;strokeColor=none;fillColor=none;spacingLeft=4;spacingRight=4;overflow=hidden;rotatable=0;points=[[0,0.5],[1,0.5]];portConstraint=eastwest;fontSize=12;" parent="9GtoAriRrsv0_3dhZRJt-1" vertex="1">
          <mxGeometry y="78" width="160" height="26" as="geometry" />
        </mxCell>
        <mxCell id="9GtoAriRrsv0_3dhZRJt-5" value="created_at" style="text;strokeColor=none;fillColor=none;spacingLeft=4;spacingRight=4;overflow=hidden;rotatable=0;points=[[0,0.5],[1,0.5]];portConstraint=eastwest;fontSize=12;" parent="9GtoAriRrsv0_3dhZRJt-1" vertex="1">
          <mxGeometry y="104" width="160" height="26" as="geometry" />
        </mxCell>
        <mxCell id="9GtoAriRrsv0_3dhZRJt-8" value="" style="edgeStyle=orthogonalEdgeStyle;fontSize=12;html=1;endArrow=ERoneToMany;" parent="1" source="5Z3BYzDQgMa1WQDFU6qO-14" target="9GtoAriRrsv0_3dhZRJt-4" edge="1">
          <mxGeometry width="100" height="100" relative="1" as="geometry">
            <mxPoint x="-280" y="377.5" as="sourcePoint" />
            <mxPoint x="-400" y="414.5" as="targetPoint" />
            <Array as="points">
              <mxPoint x="-240" y="227" />
              <mxPoint x="-240" y="253" />
            </Array>
          </mxGeometry>
        </mxCell>
        <mxCell id="9GtoAriRrsv0_3dhZRJt-9" value="" style="edgeStyle=orthogonalEdgeStyle;fontSize=12;html=1;endArrow=ERoneToMany;" parent="1" source="5Z3BYzDQgMa1WQDFU6qO-6" target="9GtoAriRrsv0_3dhZRJt-6" edge="1">
          <mxGeometry width="100" height="100" relative="1" as="geometry">
            <mxPoint x="90" y="130" as="sourcePoint" />
            <mxPoint x="-30" y="167" as="targetPoint" />
            <Array as="points">
              <mxPoint x="40" y="119" />
              <mxPoint x="40" y="279" />
            </Array>
          </mxGeometry>
        </mxCell>
        <mxCell id="9GtoAriRrsv0_3dhZRJt-10" value="AllergyPatient" style="swimlane;fontStyle=0;childLayout=stackLayout;horizontal=1;startSize=26;fillColor=#e0e0e0;horizontalStack=0;resizeParent=1;resizeParentMax=0;resizeLast=0;collapsible=1;marginBottom=0;swimlaneFillColor=#ffffff;align=center;fontSize=14;" parent="1" vertex="1">
          <mxGeometry x="-200" y="340" width="160" height="130" as="geometry" />
        </mxCell>
        <mxCell id="9GtoAriRrsv0_3dhZRJt-11" value="id" style="shape=partialRectangle;top=0;left=0;right=0;bottom=0;align=left;verticalAlign=top;fillColor=none;spacingLeft=34;spacingRight=4;overflow=hidden;rotatable=0;points=[[0,0.5],[1,0.5]];portConstraint=eastwest;dropTarget=0;fontSize=12;" parent="9GtoAriRrsv0_3dhZRJt-10" vertex="1">
          <mxGeometry y="26" width="160" height="26" as="geometry" />
        </mxCell>
        <mxCell id="9GtoAriRrsv0_3dhZRJt-12" value="PK" style="shape=partialRectangle;top=0;left=0;bottom=0;fillColor=none;align=left;verticalAlign=top;spacingLeft=4;spacingRight=4;overflow=hidden;rotatable=0;points=[];portConstraint=eastwest;part=1;fontSize=12;" parent="9GtoAriRrsv0_3dhZRJt-11" vertex="1" connectable="0">
          <mxGeometry width="30" height="26" as="geometry" />
        </mxCell>
        <mxCell id="9GtoAriRrsv0_3dhZRJt-13" value="stressor_id&#xa;" style="text;strokeColor=none;fillColor=none;spacingLeft=4;spacingRight=4;overflow=hidden;rotatable=0;points=[[0,0.5],[1,0.5]];portConstraint=eastwest;fontSize=12;" parent="9GtoAriRrsv0_3dhZRJt-10" vertex="1">
          <mxGeometry y="52" width="160" height="26" as="geometry" />
        </mxCell>
        <mxCell id="9GtoAriRrsv0_3dhZRJt-14" value="patient_id" style="text;strokeColor=none;fillColor=none;spacingLeft=4;spacingRight=4;overflow=hidden;rotatable=0;points=[[0,0.5],[1,0.5]];portConstraint=eastwest;fontSize=12;" parent="9GtoAriRrsv0_3dhZRJt-10" vertex="1">
          <mxGeometry y="78" width="160" height="26" as="geometry" />
        </mxCell>
        <mxCell id="9GtoAriRrsv0_3dhZRJt-15" value="created_at" style="text;strokeColor=none;fillColor=none;spacingLeft=4;spacingRight=4;overflow=hidden;rotatable=0;points=[[0,0.5],[1,0.5]];portConstraint=eastwest;fontSize=12;" parent="9GtoAriRrsv0_3dhZRJt-10" vertex="1">
          <mxGeometry y="104" width="160" height="26" as="geometry" />
        </mxCell>
        <mxCell id="9GtoAriRrsv0_3dhZRJt-16" value="" style="edgeStyle=orthogonalEdgeStyle;fontSize=12;html=1;endArrow=ERoneToMany;" parent="1" target="9GtoAriRrsv0_3dhZRJt-13" edge="1">
          <mxGeometry width="100" height="100" relative="1" as="geometry">
            <mxPoint x="-280" y="379" as="sourcePoint" />
            <mxPoint x="-400" y="566.5" as="targetPoint" />
            <Array as="points">
              <mxPoint x="-240" y="379" />
              <mxPoint x="-240" y="405" />
            </Array>
          </mxGeometry>
        </mxCell>
        <mxCell id="9GtoAriRrsv0_3dhZRJt-17" value="" style="edgeStyle=orthogonalEdgeStyle;fontSize=12;html=1;endArrow=ERoneToMany;" parent="1" source="5Z3BYzDQgMa1WQDFU6qO-6" target="9GtoAriRrsv0_3dhZRJt-14" edge="1">
          <mxGeometry width="100" height="100" relative="1" as="geometry">
            <mxPoint x="80" y="271" as="sourcePoint" />
            <mxPoint x="-30" y="319" as="targetPoint" />
            <Array as="points">
              <mxPoint x="40" y="119" />
              <mxPoint x="40" y="431" />
            </Array>
          </mxGeometry>
        </mxCell>
        <mxCell id="9GtoAriRrsv0_3dhZRJt-18" value="AllergyPatient" style="swimlane;fontStyle=0;childLayout=stackLayout;horizontal=1;startSize=26;fillColor=#e0e0e0;horizontalStack=0;resizeParent=1;resizeParentMax=0;resizeLast=0;collapsible=1;marginBottom=0;swimlaneFillColor=#ffffff;align=center;fontSize=14;" parent="1" vertex="1">
          <mxGeometry x="-200" y="485" width="160" height="130" as="geometry" />
        </mxCell>
        <mxCell id="9GtoAriRrsv0_3dhZRJt-19" value="id" style="shape=partialRectangle;top=0;left=0;right=0;bottom=0;align=left;verticalAlign=top;fillColor=none;spacingLeft=34;spacingRight=4;overflow=hidden;rotatable=0;points=[[0,0.5],[1,0.5]];portConstraint=eastwest;dropTarget=0;fontSize=12;" parent="9GtoAriRrsv0_3dhZRJt-18" vertex="1">
          <mxGeometry y="26" width="160" height="26" as="geometry" />
        </mxCell>
        <mxCell id="9GtoAriRrsv0_3dhZRJt-20" value="PK" style="shape=partialRectangle;top=0;left=0;bottom=0;fillColor=none;align=left;verticalAlign=top;spacingLeft=4;spacingRight=4;overflow=hidden;rotatable=0;points=[];portConstraint=eastwest;part=1;fontSize=12;" parent="9GtoAriRrsv0_3dhZRJt-19" vertex="1" connectable="0">
          <mxGeometry width="30" height="26" as="geometry" />
        </mxCell>
        <mxCell id="9GtoAriRrsv0_3dhZRJt-21" value="transportation_id&#xa;" style="text;strokeColor=none;fillColor=none;spacingLeft=4;spacingRight=4;overflow=hidden;rotatable=0;points=[[0,0.5],[1,0.5]];portConstraint=eastwest;fontSize=12;" parent="9GtoAriRrsv0_3dhZRJt-18" vertex="1">
          <mxGeometry y="52" width="160" height="26" as="geometry" />
        </mxCell>
        <mxCell id="9GtoAriRrsv0_3dhZRJt-22" value="patient_id" style="text;strokeColor=none;fillColor=none;spacingLeft=4;spacingRight=4;overflow=hidden;rotatable=0;points=[[0,0.5],[1,0.5]];portConstraint=eastwest;fontSize=12;" parent="9GtoAriRrsv0_3dhZRJt-18" vertex="1">
          <mxGeometry y="78" width="160" height="26" as="geometry" />
        </mxCell>
        <mxCell id="9GtoAriRrsv0_3dhZRJt-23" value="created_at" style="text;strokeColor=none;fillColor=none;spacingLeft=4;spacingRight=4;overflow=hidden;rotatable=0;points=[[0,0.5],[1,0.5]];portConstraint=eastwest;fontSize=12;" parent="9GtoAriRrsv0_3dhZRJt-18" vertex="1">
          <mxGeometry y="104" width="160" height="26" as="geometry" />
        </mxCell>
        <mxCell id="9GtoAriRrsv0_3dhZRJt-24" value="" style="edgeStyle=orthogonalEdgeStyle;fontSize=12;html=1;endArrow=ERoneToMany;" parent="1" target="9GtoAriRrsv0_3dhZRJt-21" edge="1">
          <mxGeometry width="100" height="100" relative="1" as="geometry">
            <mxPoint x="-280" y="524" as="sourcePoint" />
            <mxPoint x="-400" y="711.5" as="targetPoint" />
            <Array as="points">
              <mxPoint x="-240" y="524" />
              <mxPoint x="-240" y="550" />
            </Array>
          </mxGeometry>
        </mxCell>
        <mxCell id="9GtoAriRrsv0_3dhZRJt-25" value="" style="edgeStyle=orthogonalEdgeStyle;fontSize=12;html=1;endArrow=ERoneToMany;" parent="1" source="5Z3BYzDQgMa1WQDFU6qO-6" target="9GtoAriRrsv0_3dhZRJt-22" edge="1">
          <mxGeometry width="100" height="100" relative="1" as="geometry">
            <mxPoint x="80" y="416" as="sourcePoint" />
            <mxPoint x="-30" y="464" as="targetPoint" />
            <Array as="points">
              <mxPoint x="40" y="119" />
              <mxPoint x="40" y="576" />
            </Array>
          </mxGeometry>
        </mxCell>
        <mxCell id="9GtoAriRrsv0_3dhZRJt-26" value="AllergyPatient" style="swimlane;fontStyle=0;childLayout=stackLayout;horizontal=1;startSize=26;fillColor=#e0e0e0;horizontalStack=0;resizeParent=1;resizeParentMax=0;resizeLast=0;collapsible=1;marginBottom=0;swimlaneFillColor=#ffffff;align=center;fontSize=14;" parent="1" vertex="1">
          <mxGeometry x="-200" y="40" width="160" height="130" as="geometry" />
        </mxCell>
        <mxCell id="9GtoAriRrsv0_3dhZRJt-27" value="id" style="shape=partialRectangle;top=0;left=0;right=0;bottom=0;align=left;verticalAlign=top;fillColor=none;spacingLeft=34;spacingRight=4;overflow=hidden;rotatable=0;points=[[0,0.5],[1,0.5]];portConstraint=eastwest;dropTarget=0;fontSize=12;" parent="9GtoAriRrsv0_3dhZRJt-26" vertex="1">
          <mxGeometry y="26" width="160" height="26" as="geometry" />
        </mxCell>
        <mxCell id="9GtoAriRrsv0_3dhZRJt-28" value="PK" style="shape=partialRectangle;top=0;left=0;bottom=0;fillColor=none;align=left;verticalAlign=top;spacingLeft=4;spacingRight=4;overflow=hidden;rotatable=0;points=[];portConstraint=eastwest;part=1;fontSize=12;" parent="9GtoAriRrsv0_3dhZRJt-27" vertex="1" connectable="0">
          <mxGeometry width="30" height="26" as="geometry" />
        </mxCell>
        <mxCell id="9GtoAriRrsv0_3dhZRJt-29" value="time_to_reach_id&#xa;" style="text;strokeColor=none;fillColor=none;spacingLeft=4;spacingRight=4;overflow=hidden;rotatable=0;points=[[0,0.5],[1,0.5]];portConstraint=eastwest;fontSize=12;" parent="9GtoAriRrsv0_3dhZRJt-26" vertex="1">
          <mxGeometry y="52" width="160" height="26" as="geometry" />
        </mxCell>
        <mxCell id="9GtoAriRrsv0_3dhZRJt-30" value="patient_id" style="text;strokeColor=none;fillColor=none;spacingLeft=4;spacingRight=4;overflow=hidden;rotatable=0;points=[[0,0.5],[1,0.5]];portConstraint=eastwest;fontSize=12;" parent="9GtoAriRrsv0_3dhZRJt-26" vertex="1">
          <mxGeometry y="78" width="160" height="26" as="geometry" />
        </mxCell>
        <mxCell id="9GtoAriRrsv0_3dhZRJt-31" value="created_at" style="text;strokeColor=none;fillColor=none;spacingLeft=4;spacingRight=4;overflow=hidden;rotatable=0;points=[[0,0.5],[1,0.5]];portConstraint=eastwest;fontSize=12;" parent="9GtoAriRrsv0_3dhZRJt-26" vertex="1">
          <mxGeometry y="104" width="160" height="26" as="geometry" />
        </mxCell>
        <mxCell id="9GtoAriRrsv0_3dhZRJt-32" value="" style="edgeStyle=orthogonalEdgeStyle;fontSize=12;html=1;endArrow=ERoneToMany;" parent="1" target="9GtoAriRrsv0_3dhZRJt-29" edge="1">
          <mxGeometry width="100" height="100" relative="1" as="geometry">
            <mxPoint x="-280" y="79" as="sourcePoint" />
            <mxPoint x="-400" y="266.5" as="targetPoint" />
            <Array as="points">
              <mxPoint x="-240" y="79" />
              <mxPoint x="-240" y="105" />
            </Array>
          </mxGeometry>
        </mxCell>
        <mxCell id="9GtoAriRrsv0_3dhZRJt-33" value="" style="edgeStyle=orthogonalEdgeStyle;fontSize=12;html=1;endArrow=ERoneToMany;" parent="1" source="5Z3BYzDQgMa1WQDFU6qO-6" target="9GtoAriRrsv0_3dhZRJt-30" edge="1">
          <mxGeometry width="100" height="100" relative="1" as="geometry">
            <mxPoint x="80" y="-29" as="sourcePoint" />
            <mxPoint x="-30" y="19" as="targetPoint" />
            <Array as="points">
              <mxPoint x="40" y="119" />
              <mxPoint x="40" y="131" />
            </Array>
          </mxGeometry>
        </mxCell>
        <mxCell id="yymEdXogMSr9P3qc7qbV-7" value="Jinshuju SaaS" style="rounded=1;whiteSpace=wrap;html=1;" parent="1" vertex="1">
          <mxGeometry x="80" y="-320" width="160" height="60" as="geometry" />
        </mxCell>
        <mxCell id="yymEdXogMSr9P3qc7qbV-50" value="" style="edgeStyle=orthogonalEdgeStyle;fontSize=12;html=1;endArrow=ERoneToMany;" parent="1" source="5Z3BYzDQgMa1WQDFU6qO-6" target="yymEdXogMSr9P3qc7qbV-14" edge="1">
          <mxGeometry width="100" height="100" relative="1" as="geometry">
            <mxPoint x="250" y="140" as="sourcePoint" />
            <mxPoint x="340" y="-220" as="targetPoint" />
            <Array as="points">
              <mxPoint x="370" y="110" />
              <mxPoint x="370" y="-69" />
            </Array>
          </mxGeometry>
        </mxCell>
        <mxCell id="yymEdXogMSr9P3qc7qbV-51" value="" style="startArrow=oval;startFill=0;startSize=7;endArrow=block;endFill=0;endSize=10;dashed=1;html=1;exitX=0.5;exitY=1;exitDx=0;exitDy=0;entryX=0.5;entryY=0;entryDx=0;entryDy=0;" parent="1" source="yymEdXogMSr9P3qc7qbV-7" target="yymEdXogMSr9P3qc7qbV-1" edge="1">
          <mxGeometry width="100" relative="1" as="geometry">
            <mxPoint x="80" y="-220" as="sourcePoint" />
            <mxPoint x="180" y="-220" as="targetPoint" />
          </mxGeometry>
        </mxCell>
        <mxCell id="yymEdXogMSr9P3qc7qbV-52" value="feed data" style="text;html=1;align=center;verticalAlign=middle;resizable=0;points=[];" parent="yymEdXogMSr9P3qc7qbV-51" vertex="1" connectable="0">
          <mxGeometry x="-0.2824" y="2" relative="1" as="geometry">
            <mxPoint x="28" y="11" as="offset" />
          </mxGeometry>
        </mxCell>
        <mxCell id="yymEdXogMSr9P3qc7qbV-33" value="随访表单 流程" style="swimlane;html=1;childLayout=stackLayout;resizeParent=1;resizeParentMax=0;startSize=20;" parent="1" vertex="1">
          <mxGeometry x="80" y="-1040" width="510" height="640" as="geometry" />
        </mxCell>
        <mxCell id="yymEdXogMSr9P3qc7qbV-34" value="H360" style="swimlane;html=1;startSize=20;" parent="yymEdXogMSr9P3qc7qbV-33" vertex="1">
          <mxGeometry y="20" width="260" height="620" as="geometry" />
        </mxCell>
        <mxCell id="yymEdXogMSr9P3qc7qbV-40" value="" style="edgeStyle=orthogonalEdgeStyle;rounded=0;orthogonalLoop=1;jettySize=auto;html=1;entryX=0.5;entryY=0;entryDx=0;entryDy=0;" parent="yymEdXogMSr9P3qc7qbV-34" source="yymEdXogMSr9P3qc7qbV-38" target="yymEdXogMSr9P3qc7qbV-41" edge="1">
          <mxGeometry relative="1" as="geometry">
            <mxPoint x="130" y="140" as="targetPoint" />
          </mxGeometry>
        </mxCell>
        <mxCell id="yymEdXogMSr9P3qc7qbV-38" value="" style="shape=mxgraph.bpmn.shape;html=1;verticalLabelPosition=bottom;labelBackgroundColor=#ffffff;verticalAlign=top;align=center;perimeter=ellipsePerimeter;outlineConnect=0;outline=standard;symbol=general;" parent="yymEdXogMSr9P3qc7qbV-34" vertex="1">
          <mxGeometry x="112.5" y="60" width="35" height="30" as="geometry" />
        </mxCell>
        <mxCell id="yymEdXogMSr9P3qc7qbV-43" value="" style="edgeStyle=orthogonalEdgeStyle;rounded=0;orthogonalLoop=1;jettySize=auto;html=1;" parent="yymEdXogMSr9P3qc7qbV-34" source="yymEdXogMSr9P3qc7qbV-41" target="yymEdXogMSr9P3qc7qbV-42" edge="1">
          <mxGeometry relative="1" as="geometry" />
        </mxCell>
        <mxCell id="yymEdXogMSr9P3qc7qbV-42" value="submit survey" style="shape=ext;rounded=1;html=1;whiteSpace=wrap;strokeWidth=3;" parent="yymEdXogMSr9P3qc7qbV-34" vertex="1">
          <mxGeometry x="85" y="210" width="90" height="40" as="geometry" />
        </mxCell>
        <mxCell id="yymEdXogMSr9P3qc7qbV-54" value="" style="edgeStyle=orthogonalEdgeStyle;rounded=0;orthogonalLoop=1;jettySize=auto;html=1;" parent="yymEdXogMSr9P3qc7qbV-34" source="yymEdXogMSr9P3qc7qbV-48" target="yymEdXogMSr9P3qc7qbV-53" edge="1">
          <mxGeometry relative="1" as="geometry" />
        </mxCell>
        <mxCell id="yymEdXogMSr9P3qc7qbV-56" value="" style="edgeStyle=orthogonalEdgeStyle;rounded=0;orthogonalLoop=1;jettySize=auto;html=1;" parent="yymEdXogMSr9P3qc7qbV-34" source="yymEdXogMSr9P3qc7qbV-53" target="yymEdXogMSr9P3qc7qbV-55" edge="1">
          <mxGeometry relative="1" as="geometry" />
        </mxCell>
        <mxCell id="yymEdXogMSr9P3qc7qbV-48" value="store raw data to JinshujuDatum" style="shape=ext;rounded=1;html=1;whiteSpace=wrap;strokeWidth=3;" parent="yymEdXogMSr9P3qc7qbV-34" vertex="1">
          <mxGeometry x="72.5" y="300" width="115" height="70" as="geometry" />
        </mxCell>
        <mxCell id="yymEdXogMSr9P3qc7qbV-41" value="start survey" style="shape=ext;rounded=1;html=1;whiteSpace=wrap;strokeWidth=3;" parent="yymEdXogMSr9P3qc7qbV-34" vertex="1">
          <mxGeometry x="85" y="130" width="90" height="40" as="geometry" />
        </mxCell>
        <mxCell id="yymEdXogMSr9P3qc7qbV-53" value="show survey record on Patient360 page" style="shape=ext;rounded=1;html=1;whiteSpace=wrap;strokeWidth=3;" parent="yymEdXogMSr9P3qc7qbV-34" vertex="1">
          <mxGeometry x="72.5" y="420" width="115" height="70" as="geometry" />
        </mxCell>
        <mxCell id="yymEdXogMSr9P3qc7qbV-55" value="" style="shape=mxgraph.bpmn.shape;html=1;verticalLabelPosition=bottom;labelBackgroundColor=#ffffff;verticalAlign=top;align=center;perimeter=ellipsePerimeter;outlineConnect=0;outline=end;symbol=terminate;" parent="yymEdXogMSr9P3qc7qbV-34" vertex="1">
          <mxGeometry x="112.5" y="540" width="35" height="30" as="geometry" />
        </mxCell>
        <mxCell id="yymEdXogMSr9P3qc7qbV-35" value="JSJ" style="swimlane;html=1;startSize=20;" parent="yymEdXogMSr9P3qc7qbV-33" vertex="1">
          <mxGeometry x="260" y="20" width="250" height="620" as="geometry" />
        </mxCell>
        <mxCell id="yymEdXogMSr9P3qc7qbV-47" value="" style="edgeStyle=orthogonalEdgeStyle;rounded=0;orthogonalLoop=1;jettySize=auto;html=1;" parent="yymEdXogMSr9P3qc7qbV-35" source="yymEdXogMSr9P3qc7qbV-44" target="yymEdXogMSr9P3qc7qbV-46" edge="1">
          <mxGeometry relative="1" as="geometry" />
        </mxCell>
        <mxCell id="yymEdXogMSr9P3qc7qbV-44" value="store survey data" style="shape=ext;rounded=1;html=1;whiteSpace=wrap;strokeWidth=3;" parent="yymEdXogMSr9P3qc7qbV-35" vertex="1">
          <mxGeometry x="80" y="210" width="90" height="40" as="geometry" />
        </mxCell>
        <mxCell id="yymEdXogMSr9P3qc7qbV-46" value="send data to H360" style="shape=ext;rounded=1;html=1;whiteSpace=wrap;strokeWidth=3;" parent="yymEdXogMSr9P3qc7qbV-35" vertex="1">
          <mxGeometry x="80" y="315" width="90" height="40" as="geometry" />
        </mxCell>
        <mxCell id="yymEdXogMSr9P3qc7qbV-49" value="" style="edgeStyle=orthogonalEdgeStyle;rounded=0;orthogonalLoop=1;jettySize=auto;html=1;" parent="yymEdXogMSr9P3qc7qbV-33" source="yymEdXogMSr9P3qc7qbV-46" target="yymEdXogMSr9P3qc7qbV-48" edge="1">
          <mxGeometry relative="1" as="geometry" />
        </mxCell>
        <mxCell id="yymEdXogMSr9P3qc7qbV-45" value="" style="edgeStyle=orthogonalEdgeStyle;rounded=0;orthogonalLoop=1;jettySize=auto;html=1;" parent="yymEdXogMSr9P3qc7qbV-33" source="yymEdXogMSr9P3qc7qbV-42" target="yymEdXogMSr9P3qc7qbV-44" edge="1">
          <mxGeometry relative="1" as="geometry" />
        </mxCell>
        <mxCell id="yymEdXogMSr9P3qc7qbV-1" value="JinshujuDatum" style="swimlane;fontStyle=0;childLayout=stackLayout;horizontal=1;startSize=26;fillColor=#e0e0e0;horizontalStack=0;resizeParent=1;resizeParentMax=0;resizeLast=0;collapsible=1;marginBottom=0;swimlaneFillColor=#ffffff;align=center;fontSize=14;" parent="1" vertex="1">
          <mxGeometry x="80" y="-160" width="160" height="104" as="geometry" />
        </mxCell>
        <mxCell id="yymEdXogMSr9P3qc7qbV-2" value="id" style="shape=partialRectangle;top=0;left=0;right=0;bottom=0;align=left;verticalAlign=top;fillColor=none;spacingLeft=34;spacingRight=4;overflow=hidden;rotatable=0;points=[[0,0.5],[1,0.5]];portConstraint=eastwest;dropTarget=0;fontSize=12;" parent="yymEdXogMSr9P3qc7qbV-1" vertex="1">
          <mxGeometry y="26" width="160" height="26" as="geometry" />
        </mxCell>
        <mxCell id="yymEdXogMSr9P3qc7qbV-3" value="PK" style="shape=partialRectangle;top=0;left=0;bottom=0;fillColor=none;align=left;verticalAlign=top;spacingLeft=4;spacingRight=4;overflow=hidden;rotatable=0;points=[];portConstraint=eastwest;part=1;fontSize=12;" parent="yymEdXogMSr9P3qc7qbV-2" vertex="1" connectable="0">
          <mxGeometry width="30" height="26" as="geometry" />
        </mxCell>
        <mxCell id="yymEdXogMSr9P3qc7qbV-4" value="content" style="text;strokeColor=none;fillColor=none;spacingLeft=4;spacingRight=4;overflow=hidden;rotatable=0;points=[[0,0.5],[1,0.5]];portConstraint=eastwest;fontSize=12;" parent="yymEdXogMSr9P3qc7qbV-1" vertex="1">
          <mxGeometry y="52" width="160" height="26" as="geometry" />
        </mxCell>
        <mxCell id="yymEdXogMSr9P3qc7qbV-14" value="patient_id" style="text;strokeColor=none;fillColor=none;spacingLeft=4;spacingRight=4;overflow=hidden;rotatable=0;points=[[0,0.5],[1,0.5]];portConstraint=eastwest;fontSize=12;" parent="yymEdXogMSr9P3qc7qbV-1" vertex="1">
          <mxGeometry y="78" width="160" height="26" as="geometry" />
        </mxCell>
        <mxCell id="yymEdXogMSr9P3qc7qbV-15" value="JinshujuForm" style="swimlane;fontStyle=0;childLayout=stackLayout;horizontal=1;startSize=26;fillColor=#e0e0e0;horizontalStack=0;resizeParent=1;resizeParentMax=0;resizeLast=0;collapsible=1;marginBottom=0;swimlaneFillColor=#ffffff;align=center;fontSize=14;" parent="1" vertex="1">
          <mxGeometry x="560" y="-160" width="160" height="104" as="geometry" />
        </mxCell>
        <mxCell id="yymEdXogMSr9P3qc7qbV-16" value="id" style="shape=partialRectangle;top=0;left=0;right=0;bottom=0;align=left;verticalAlign=top;fillColor=none;spacingLeft=34;spacingRight=4;overflow=hidden;rotatable=0;points=[[0,0.5],[1,0.5]];portConstraint=eastwest;dropTarget=0;fontSize=12;" parent="yymEdXogMSr9P3qc7qbV-15" vertex="1">
          <mxGeometry y="26" width="160" height="26" as="geometry" />
        </mxCell>
        <mxCell id="yymEdXogMSr9P3qc7qbV-17" value="PK" style="shape=partialRectangle;top=0;left=0;bottom=0;fillColor=none;align=left;verticalAlign=top;spacingLeft=4;spacingRight=4;overflow=hidden;rotatable=0;points=[];portConstraint=eastwest;part=1;fontSize=12;" parent="yymEdXogMSr9P3qc7qbV-16" vertex="1" connectable="0">
          <mxGeometry width="30" height="26" as="geometry" />
        </mxCell>
        <mxCell id="yymEdXogMSr9P3qc7qbV-18" value="name" style="text;strokeColor=none;fillColor=none;spacingLeft=4;spacingRight=4;overflow=hidden;rotatable=0;points=[[0,0.5],[1,0.5]];portConstraint=eastwest;fontSize=12;" parent="yymEdXogMSr9P3qc7qbV-15" vertex="1">
          <mxGeometry y="52" width="160" height="26" as="geometry" />
        </mxCell>
        <mxCell id="yymEdXogMSr9P3qc7qbV-19" value="form_id" style="text;strokeColor=none;fillColor=none;spacingLeft=4;spacingRight=4;overflow=hidden;rotatable=0;points=[[0,0.5],[1,0.5]];portConstraint=eastwest;fontSize=12;" parent="yymEdXogMSr9P3qc7qbV-15" vertex="1">
          <mxGeometry y="78" width="160" height="26" as="geometry" />
        </mxCell>
        <mxCell id="I2cTnEdnRW89II02c0nb-1" value="CI/CD - Jenkins" style="shape=document;whiteSpace=wrap;html=1;boundedLbl=1;" vertex="1" parent="1">
          <mxGeometry x="-800" y="1160" width="120" height="80" as="geometry" />
        </mxCell>
        <mxCell id="I2cTnEdnRW89II02c0nb-6" value="1. git push / pull request" style="edgeStyle=orthogonalEdgeStyle;rounded=0;orthogonalLoop=1;jettySize=auto;html=1;entryX=0.5;entryY=1;entryDx=0;entryDy=0;" edge="1" parent="1" target="I2cTnEdnRW89II02c0nb-3">
          <mxGeometry relative="1" as="geometry">
            <mxPoint x="-740" y="1470" as="sourcePoint" />
            <mxPoint x="-740" y="1400" as="targetPoint" />
          </mxGeometry>
        </mxCell>
        <mxCell id="I2cTnEdnRW89II02c0nb-2" value="Developer" style="shape=umlActor;verticalLabelPosition=bottom;labelBackgroundColor=#ffffff;verticalAlign=top;html=1;outlineConnect=0;" vertex="1" parent="1">
          <mxGeometry x="-755" y="1490" width="30" height="60" as="geometry" />
        </mxCell>
        <mxCell id="I2cTnEdnRW89II02c0nb-9" value="" style="edgeStyle=orthogonalEdgeStyle;rounded=0;orthogonalLoop=1;jettySize=auto;html=1;entryX=0;entryY=0.5;entryDx=0;entryDy=0;" edge="1" parent="1" source="I2cTnEdnRW89II02c0nb-3" target="I2cTnEdnRW89II02c0nb-7">
          <mxGeometry relative="1" as="geometry">
            <mxPoint x="-630" y="1340" as="targetPoint" />
          </mxGeometry>
        </mxCell>
        <mxCell id="I2cTnEdnRW89II02c0nb-10" value="2. webhook message" style="edgeLabel;html=1;align=center;verticalAlign=middle;resizable=0;points=[];" vertex="1" connectable="0" parent="I2cTnEdnRW89II02c0nb-9">
          <mxGeometry x="-0.013" y="3" relative="1" as="geometry">
            <mxPoint y="-7" as="offset" />
          </mxGeometry>
        </mxCell>
        <mxCell id="I2cTnEdnRW89II02c0nb-3" value="Github" style="shape=cylinder;whiteSpace=wrap;html=1;boundedLbl=1;backgroundOutline=1;" vertex="1" parent="1">
          <mxGeometry x="-770" y="1300" width="60" height="80" as="geometry" />
        </mxCell>
        <mxCell id="I2cTnEdnRW89II02c0nb-12" value="" style="edgeStyle=orthogonalEdgeStyle;rounded=0;orthogonalLoop=1;jettySize=auto;html=1;" edge="1" parent="1" source="I2cTnEdnRW89II02c0nb-7" target="I2cTnEdnRW89II02c0nb-11">
          <mxGeometry relative="1" as="geometry" />
        </mxCell>
        <mxCell id="I2cTnEdnRW89II02c0nb-13" value="3. start building" style="edgeLabel;html=1;align=center;verticalAlign=middle;resizable=0;points=[];" vertex="1" connectable="0" parent="I2cTnEdnRW89II02c0nb-12">
          <mxGeometry x="-0.0723" y="1" relative="1" as="geometry">
            <mxPoint x="-1" y="9.999999999999998" as="offset" />
          </mxGeometry>
        </mxCell>
        <mxCell id="I2cTnEdnRW89II02c0nb-7" value="Jenkins" style="rounded=0;whiteSpace=wrap;html=1;" vertex="1" parent="1">
          <mxGeometry x="-520" y="1310" width="120" height="60" as="geometry" />
        </mxCell>
        <mxCell id="I2cTnEdnRW89II02c0nb-21" value="" style="edgeStyle=orthogonalEdgeStyle;rounded=0;orthogonalLoop=1;jettySize=auto;html=1;" edge="1" parent="1" source="I2cTnEdnRW89II02c0nb-11">
          <mxGeometry relative="1" as="geometry">
            <mxPoint x="-720" y="1520" as="targetPoint" />
          </mxGeometry>
        </mxCell>
        <mxCell id="I2cTnEdnRW89II02c0nb-22" value="4.1 rspec failed" style="edgeLabel;html=1;align=center;verticalAlign=middle;resizable=0;points=[];" vertex="1" connectable="0" parent="I2cTnEdnRW89II02c0nb-21">
          <mxGeometry x="-0.3248" y="1" relative="1" as="geometry">
            <mxPoint x="-20.83" y="-11" as="offset" />
          </mxGeometry>
        </mxCell>
        <mxCell id="I2cTnEdnRW89II02c0nb-24" value="" style="edgeStyle=orthogonalEdgeStyle;rounded=0;orthogonalLoop=1;jettySize=auto;html=1;entryX=0;entryY=0.5;entryDx=0;entryDy=0;" edge="1" parent="1" source="I2cTnEdnRW89II02c0nb-11" target="I2cTnEdnRW89II02c0nb-38">
          <mxGeometry relative="1" as="geometry">
            <mxPoint x="-200" y="1610" as="targetPoint" />
            <Array as="points">
              <mxPoint x="-280" y="1520" />
              <mxPoint x="-280" y="1590" />
            </Array>
          </mxGeometry>
        </mxCell>
        <mxCell id="I2cTnEdnRW89II02c0nb-27" value="4.2 successfully" style="edgeLabel;html=1;align=center;verticalAlign=middle;resizable=0;points=[];" vertex="1" connectable="0" parent="I2cTnEdnRW89II02c0nb-24">
          <mxGeometry x="-0.2576" y="4" relative="1" as="geometry">
            <mxPoint x="-49.56" y="-5.9999999999999964" as="offset" />
          </mxGeometry>
        </mxCell>
        <mxCell id="I2cTnEdnRW89II02c0nb-11" value="Run rspec in docker test environment" style="strokeWidth=2;html=1;shape=mxgraph.flowchart.decision;whiteSpace=wrap;" vertex="1" parent="1">
          <mxGeometry x="-522.5" y="1460" width="125" height="120" as="geometry" />
        </mxCell>
        <mxCell id="I2cTnEdnRW89II02c0nb-29" value="" style="edgeStyle=orthogonalEdgeStyle;rounded=0;orthogonalLoop=1;jettySize=auto;html=1;exitX=1;exitY=0.5;exitDx=0;exitDy=0;exitPerimeter=0;entryX=0;entryY=0.5;entryDx=0;entryDy=0;" edge="1" parent="1" source="I2cTnEdnRW89II02c0nb-11" target="I2cTnEdnRW89II02c0nb-36">
          <mxGeometry relative="1" as="geometry">
            <mxPoint x="-390" y="1510" as="sourcePoint" />
            <mxPoint x="-200" y="1430" as="targetPoint" />
            <Array as="points">
              <mxPoint x="-280" y="1520" />
              <mxPoint x="-280" y="1450" />
            </Array>
          </mxGeometry>
        </mxCell>
        <mxCell id="I2cTnEdnRW89II02c0nb-34" style="edgeStyle=orthogonalEdgeStyle;rounded=0;orthogonalLoop=1;jettySize=auto;html=1;exitX=0.5;exitY=1;exitDx=0;exitDy=0;entryX=0.5;entryY=0;entryDx=0;entryDy=0;" edge="1" parent="1" target="I2cTnEdnRW89II02c0nb-33">
          <mxGeometry relative="1" as="geometry">
            <mxPoint x="-150" y="1620" as="sourcePoint" />
          </mxGeometry>
        </mxCell>
        <mxCell id="I2cTnEdnRW89II02c0nb-35" value="5. docker push image" style="edgeLabel;html=1;align=center;verticalAlign=middle;resizable=0;points=[];" vertex="1" connectable="0" parent="I2cTnEdnRW89II02c0nb-34">
          <mxGeometry x="0.0722" y="3" relative="1" as="geometry">
            <mxPoint x="-3" as="offset" />
          </mxGeometry>
        </mxCell>
        <mxCell id="I2cTnEdnRW89II02c0nb-30" style="edgeStyle=orthogonalEdgeStyle;rounded=0;orthogonalLoop=1;jettySize=auto;html=1;exitX=0.5;exitY=1;exitDx=0;exitDy=0;entryX=0.5;entryY=0;entryDx=0;entryDy=0;" edge="1" parent="1" source="I2cTnEdnRW89II02c0nb-36">
          <mxGeometry relative="1" as="geometry">
            <mxPoint x="-150" y="1480" as="sourcePoint" />
            <mxPoint x="-150" y="1560" as="targetPoint" />
          </mxGeometry>
        </mxCell>
        <mxCell id="I2cTnEdnRW89II02c0nb-31" value="4.3 continue building image" style="edgeLabel;html=1;align=center;verticalAlign=middle;resizable=0;points=[];" vertex="1" connectable="0" parent="I2cTnEdnRW89II02c0nb-30">
          <mxGeometry x="-0.0559" y="2" relative="1" as="geometry">
            <mxPoint as="offset" />
          </mxGeometry>
        </mxCell>
        <mxCell id="I2cTnEdnRW89II02c0nb-41" style="edgeStyle=orthogonalEdgeStyle;rounded=0;orthogonalLoop=1;jettySize=auto;html=1;exitX=0;exitY=0.5;exitDx=0;exitDy=0;entryX=1;entryY=0.5;entryDx=0;entryDy=0;" edge="1" parent="1" source="I2cTnEdnRW89II02c0nb-33" target="I2cTnEdnRW89II02c0nb-40">
          <mxGeometry relative="1" as="geometry" />
        </mxCell>
        <mxCell id="I2cTnEdnRW89II02c0nb-42" value="6. download new prod image" style="edgeLabel;html=1;align=center;verticalAlign=middle;resizable=0;points=[];" vertex="1" connectable="0" parent="I2cTnEdnRW89II02c0nb-41">
          <mxGeometry x="-0.2905" y="1" relative="1" as="geometry">
            <mxPoint x="-25.83" y="-11" as="offset" />
          </mxGeometry>
        </mxCell>
        <mxCell id="I2cTnEdnRW89II02c0nb-33" value="Docker Registry" style="shape=cylinder;whiteSpace=wrap;html=1;boundedLbl=1;backgroundOutline=1;" vertex="1" parent="1">
          <mxGeometry x="-180" y="1720" width="60" height="80" as="geometry" />
        </mxCell>
        <mxCell id="I2cTnEdnRW89II02c0nb-36" value="&lt;span&gt;accept pr, auto merge&lt;/span&gt;" style="rounded=1;whiteSpace=wrap;html=1;" vertex="1" parent="1">
          <mxGeometry x="-200" y="1420" width="100" height="60" as="geometry" />
        </mxCell>
        <mxCell id="I2cTnEdnRW89II02c0nb-38" value="Build prod docker image" style="rounded=1;whiteSpace=wrap;html=1;" vertex="1" parent="1">
          <mxGeometry x="-200" y="1560" width="100" height="60" as="geometry" />
        </mxCell>
        <mxCell id="I2cTnEdnRW89II02c0nb-44" style="edgeStyle=orthogonalEdgeStyle;rounded=0;orthogonalLoop=1;jettySize=auto;html=1;exitX=0;exitY=0.5;exitDx=0;exitDy=0;" edge="1" parent="1" source="I2cTnEdnRW89II02c0nb-40" target="I2cTnEdnRW89II02c0nb-46">
          <mxGeometry relative="1" as="geometry">
            <mxPoint x="-665" y="1760" as="targetPoint" />
          </mxGeometry>
        </mxCell>
        <mxCell id="I2cTnEdnRW89II02c0nb-45" value="7. restart server" style="edgeLabel;html=1;align=center;verticalAlign=middle;resizable=0;points=[];" vertex="1" connectable="0" parent="I2cTnEdnRW89II02c0nb-44">
          <mxGeometry x="-0.2" y="-3" relative="1" as="geometry">
            <mxPoint x="-18.33" y="-7" as="offset" />
          </mxGeometry>
        </mxCell>
        <mxCell id="I2cTnEdnRW89II02c0nb-40" value="App Server" style="rounded=0;whiteSpace=wrap;html=1;" vertex="1" parent="1">
          <mxGeometry x="-520" y="1730" width="120" height="60" as="geometry" />
        </mxCell>
        <mxCell id="I2cTnEdnRW89II02c0nb-46" value="User" style="shape=umlActor;verticalLabelPosition=bottom;labelBackgroundColor=#ffffff;verticalAlign=top;html=1;outlineConnect=0;" vertex="1" parent="1">
          <mxGeometry x="-755" y="1730" width="30" height="60" as="geometry" />
        </mxCell>
      </root>
    </mxGraphModel>
  </diagram>
</mxfile>
